# xmcd
#
# Track frame offsets: 
#        150
#        13592
#        28715
#        48335
#        65582
#        80475
#        95957
#        113742
#        133695
#        155905
#        176070
#
# Disc length: 2606 seconds
#
# Revision: 3
# Processed by: cddbd v1.4PL0 Copyright (c) Steve Scherf et al.
# Submitted via: ExactAudioCopy v0.90b4
#
DISCID=980a2c0b
DTITLE=Fenton Robinson - Somebody Loan Me A Dime
DYEAR=1974
DGENRE=Blues
TTITLE0=Somebody Loan Me A Dime
TTITLE1=The Getaway
TTITLE2=Directly From My Heart To You
TTITLE3=Going To Chicago
TTITLE4=You Say You're Leaving
TTITLE5=Checking On My Woman
TTITLE6=You Don't Know What Love Is
TTITLE7=I've Changed
TTITLE8=Country Girl
TTITLE9=Gotta Wake Up
TTITLE10=Texas Flood
EXTD=
EXTT0=
EXTT1=
EXTT2=
EXTT3=
EXTT4=
EXTT5=
EXTT6=
EXTT7=
EXTT8=
EXTT9=
EXTT10=
PLAYORDER=
